%TF.GenerationSoftware,KiCad,Pcbnew,8.0.7*%
%TF.CreationDate,2025-01-17T21:34:44+01:00*%
%TF.ProjectId,SAO_HelloMyNameIs,53414f5f-4865-46c6-9c6f-4d794e616d65,rev?*%
%TF.SameCoordinates,Original*%
%TF.FileFunction,Copper,L1,Top*%
%TF.FilePolarity,Positive*%
%FSLAX46Y46*%
G04 Gerber Fmt 4.6, Leading zero omitted, Abs format (unit mm)*
G04 Created by KiCad (PCBNEW 8.0.7) date 2025-01-17 21:34:44*
%MOMM*%
%LPD*%
G01*
G04 APERTURE LIST*
%TA.AperFunction,ComponentPad*%
%ADD10C,1.500000*%
%TD*%
G04 APERTURE END LIST*
D10*
%TO.P,,1*%
%TO.N,N/C*%
X98196400Y-104851200D03*
%TD*%
%TO.P,,1*%
%TO.N,N/C*%
X95656400Y-104851200D03*
%TD*%
%TO.P,,1*%
%TO.N,N/C*%
X108356400Y-104851200D03*
%TD*%
%TO.P,,1*%
%TO.N,N/C*%
X105816400Y-104851200D03*
%TD*%
%TO.P,,1*%
%TO.N,N/C*%
X103276400Y-104851200D03*
%TD*%
%TO.P,,1*%
%TO.N,N/C*%
X100736400Y-104851200D03*
%TD*%
%TA.AperFunction,NonConductor*%
G36*
X147849091Y-67478220D02*
G01*
X148226180Y-67494691D01*
X148236924Y-67495631D01*
X148608480Y-67544554D01*
X148619091Y-67546425D01*
X148984954Y-67627541D01*
X148995397Y-67630340D01*
X149352765Y-67743022D01*
X149362930Y-67746721D01*
X149709155Y-67890136D01*
X149718927Y-67894693D01*
X150051325Y-68067732D01*
X150060693Y-68073141D01*
X150376731Y-68274482D01*
X150385577Y-68280675D01*
X150682890Y-68508814D01*
X150691162Y-68515756D01*
X150967436Y-68768914D01*
X150975085Y-68776563D01*
X151228243Y-69052837D01*
X151235187Y-69061111D01*
X151463321Y-69358418D01*
X151469517Y-69367268D01*
X151670858Y-69683306D01*
X151676267Y-69692674D01*
X151797480Y-69925518D01*
X151849298Y-70025056D01*
X151853870Y-70034860D01*
X151997278Y-70381069D01*
X152000977Y-70391234D01*
X152113659Y-70748602D01*
X152116459Y-70759050D01*
X152197569Y-71124884D01*
X152199448Y-71135538D01*
X152248366Y-71507059D01*
X152249308Y-71517818D01*
X152265779Y-71894893D01*
X152265782Y-71894945D01*
X152265900Y-71900356D01*
X152265900Y-103054893D01*
X152265782Y-103060302D01*
X152249318Y-103437378D01*
X152248375Y-103448154D01*
X152199465Y-103819663D01*
X152197587Y-103830317D01*
X152116479Y-104196170D01*
X152113679Y-104206618D01*
X152001000Y-104563992D01*
X151997300Y-104574158D01*
X151853897Y-104920362D01*
X151849325Y-104930166D01*
X151676301Y-105262542D01*
X151670893Y-105271910D01*
X151469548Y-105587958D01*
X151463343Y-105596819D01*
X151235226Y-105894107D01*
X151228272Y-105902394D01*
X150975115Y-106178666D01*
X150967466Y-106186315D01*
X150691194Y-106439472D01*
X150682907Y-106446426D01*
X150385619Y-106674543D01*
X150376758Y-106680748D01*
X150060710Y-106882093D01*
X150051342Y-106887501D01*
X149718966Y-107060525D01*
X149709162Y-107065097D01*
X149362958Y-107208500D01*
X149352792Y-107212200D01*
X148995418Y-107324879D01*
X148984970Y-107327679D01*
X148619117Y-107408787D01*
X148608463Y-107410665D01*
X148236954Y-107459575D01*
X148226178Y-107460518D01*
X147849149Y-107476980D01*
X147843740Y-107477098D01*
X92089106Y-107477098D01*
X92083697Y-107476980D01*
X91706621Y-107460516D01*
X91695845Y-107459573D01*
X91324336Y-107410663D01*
X91313682Y-107408785D01*
X90947830Y-107327677D01*
X90937382Y-107324877D01*
X90580007Y-107212198D01*
X90569841Y-107208498D01*
X90223637Y-107065095D01*
X90213833Y-107060523D01*
X89881458Y-106887500D01*
X89872090Y-106882092D01*
X89556042Y-106680747D01*
X89547181Y-106674542D01*
X89249893Y-106446425D01*
X89241606Y-106439471D01*
X88965334Y-106186314D01*
X88957685Y-106178665D01*
X88704528Y-105902393D01*
X88697574Y-105894106D01*
X88469457Y-105596818D01*
X88463252Y-105587957D01*
X88261907Y-105271909D01*
X88256499Y-105262541D01*
X88083476Y-104930166D01*
X88078904Y-104920362D01*
X88050256Y-104851200D01*
X94600817Y-104851200D01*
X94621099Y-105057132D01*
X94621100Y-105057134D01*
X94681168Y-105255154D01*
X94778715Y-105437650D01*
X94778717Y-105437652D01*
X94909989Y-105597610D01*
X95006609Y-105676902D01*
X95069950Y-105728885D01*
X95252446Y-105826432D01*
X95450466Y-105886500D01*
X95450465Y-105886500D01*
X95468929Y-105888318D01*
X95656400Y-105906783D01*
X95862334Y-105886500D01*
X96060354Y-105826432D01*
X96242850Y-105728885D01*
X96402810Y-105597610D01*
X96534085Y-105437650D01*
X96631632Y-105255154D01*
X96691700Y-105057134D01*
X96711983Y-104851200D01*
X97140817Y-104851200D01*
X97161099Y-105057132D01*
X97161100Y-105057134D01*
X97221168Y-105255154D01*
X97318715Y-105437650D01*
X97318717Y-105437652D01*
X97449989Y-105597610D01*
X97546609Y-105676902D01*
X97609950Y-105728885D01*
X97792446Y-105826432D01*
X97990466Y-105886500D01*
X97990465Y-105886500D01*
X98008929Y-105888318D01*
X98196400Y-105906783D01*
X98402334Y-105886500D01*
X98600354Y-105826432D01*
X98782850Y-105728885D01*
X98942810Y-105597610D01*
X99074085Y-105437650D01*
X99171632Y-105255154D01*
X99231700Y-105057134D01*
X99251983Y-104851200D01*
X99680817Y-104851200D01*
X99701099Y-105057132D01*
X99701100Y-105057134D01*
X99761168Y-105255154D01*
X99858715Y-105437650D01*
X99858717Y-105437652D01*
X99989989Y-105597610D01*
X100086609Y-105676902D01*
X100149950Y-105728885D01*
X100332446Y-105826432D01*
X100530466Y-105886500D01*
X100530465Y-105886500D01*
X100548929Y-105888318D01*
X100736400Y-105906783D01*
X100942334Y-105886500D01*
X101140354Y-105826432D01*
X101322850Y-105728885D01*
X101482810Y-105597610D01*
X101614085Y-105437650D01*
X101711632Y-105255154D01*
X101771700Y-105057134D01*
X101791983Y-104851200D01*
X102220817Y-104851200D01*
X102241099Y-105057132D01*
X102241100Y-105057134D01*
X102301168Y-105255154D01*
X102398715Y-105437650D01*
X102398717Y-105437652D01*
X102529989Y-105597610D01*
X102626609Y-105676902D01*
X102689950Y-105728885D01*
X102872446Y-105826432D01*
X103070466Y-105886500D01*
X103070465Y-105886500D01*
X103088929Y-105888318D01*
X103276400Y-105906783D01*
X103482334Y-105886500D01*
X103680354Y-105826432D01*
X103862850Y-105728885D01*
X104022810Y-105597610D01*
X104154085Y-105437650D01*
X104251632Y-105255154D01*
X104311700Y-105057134D01*
X104331983Y-104851200D01*
X104760817Y-104851200D01*
X104781099Y-105057132D01*
X104781100Y-105057134D01*
X104841168Y-105255154D01*
X104938715Y-105437650D01*
X104938717Y-105437652D01*
X105069989Y-105597610D01*
X105166609Y-105676902D01*
X105229950Y-105728885D01*
X105412446Y-105826432D01*
X105610466Y-105886500D01*
X105610465Y-105886500D01*
X105628929Y-105888318D01*
X105816400Y-105906783D01*
X106022334Y-105886500D01*
X106220354Y-105826432D01*
X106402850Y-105728885D01*
X106562810Y-105597610D01*
X106694085Y-105437650D01*
X106791632Y-105255154D01*
X106851700Y-105057134D01*
X106871983Y-104851200D01*
X107300817Y-104851200D01*
X107321099Y-105057132D01*
X107321100Y-105057134D01*
X107381168Y-105255154D01*
X107478715Y-105437650D01*
X107478717Y-105437652D01*
X107609989Y-105597610D01*
X107706609Y-105676902D01*
X107769950Y-105728885D01*
X107952446Y-105826432D01*
X108150466Y-105886500D01*
X108150465Y-105886500D01*
X108168929Y-105888318D01*
X108356400Y-105906783D01*
X108562334Y-105886500D01*
X108760354Y-105826432D01*
X108942850Y-105728885D01*
X109102810Y-105597610D01*
X109234085Y-105437650D01*
X109331632Y-105255154D01*
X109391700Y-105057134D01*
X109411983Y-104851200D01*
X109391700Y-104645266D01*
X109331632Y-104447246D01*
X109234085Y-104264750D01*
X109157081Y-104170920D01*
X109102810Y-104104789D01*
X108942852Y-103973517D01*
X108942853Y-103973517D01*
X108942850Y-103973515D01*
X108760354Y-103875968D01*
X108562334Y-103815900D01*
X108562332Y-103815899D01*
X108562334Y-103815899D01*
X108356400Y-103795617D01*
X108150467Y-103815899D01*
X107952443Y-103875969D01*
X107842298Y-103934843D01*
X107769950Y-103973515D01*
X107769948Y-103973516D01*
X107769947Y-103973517D01*
X107609989Y-104104789D01*
X107478717Y-104264747D01*
X107381169Y-104447243D01*
X107321099Y-104645267D01*
X107300817Y-104851200D01*
X106871983Y-104851200D01*
X106851700Y-104645266D01*
X106791632Y-104447246D01*
X106694085Y-104264750D01*
X106617081Y-104170920D01*
X106562810Y-104104789D01*
X106402852Y-103973517D01*
X106402853Y-103973517D01*
X106402850Y-103973515D01*
X106220354Y-103875968D01*
X106022334Y-103815900D01*
X106022332Y-103815899D01*
X106022334Y-103815899D01*
X105816400Y-103795617D01*
X105610467Y-103815899D01*
X105412443Y-103875969D01*
X105302298Y-103934843D01*
X105229950Y-103973515D01*
X105229948Y-103973516D01*
X105229947Y-103973517D01*
X105069989Y-104104789D01*
X104938717Y-104264747D01*
X104841169Y-104447243D01*
X104781099Y-104645267D01*
X104760817Y-104851200D01*
X104331983Y-104851200D01*
X104311700Y-104645266D01*
X104251632Y-104447246D01*
X104154085Y-104264750D01*
X104077081Y-104170920D01*
X104022810Y-104104789D01*
X103862852Y-103973517D01*
X103862853Y-103973517D01*
X103862850Y-103973515D01*
X103680354Y-103875968D01*
X103482334Y-103815900D01*
X103482332Y-103815899D01*
X103482334Y-103815899D01*
X103276400Y-103795617D01*
X103070467Y-103815899D01*
X102872443Y-103875969D01*
X102762298Y-103934843D01*
X102689950Y-103973515D01*
X102689948Y-103973516D01*
X102689947Y-103973517D01*
X102529989Y-104104789D01*
X102398717Y-104264747D01*
X102301169Y-104447243D01*
X102241099Y-104645267D01*
X102220817Y-104851200D01*
X101791983Y-104851200D01*
X101771700Y-104645266D01*
X101711632Y-104447246D01*
X101614085Y-104264750D01*
X101537081Y-104170920D01*
X101482810Y-104104789D01*
X101322852Y-103973517D01*
X101322853Y-103973517D01*
X101322850Y-103973515D01*
X101140354Y-103875968D01*
X100942334Y-103815900D01*
X100942332Y-103815899D01*
X100942334Y-103815899D01*
X100736400Y-103795617D01*
X100530467Y-103815899D01*
X100332443Y-103875969D01*
X100222298Y-103934843D01*
X100149950Y-103973515D01*
X100149948Y-103973516D01*
X100149947Y-103973517D01*
X99989989Y-104104789D01*
X99858717Y-104264747D01*
X99761169Y-104447243D01*
X99701099Y-104645267D01*
X99680817Y-104851200D01*
X99251983Y-104851200D01*
X99231700Y-104645266D01*
X99171632Y-104447246D01*
X99074085Y-104264750D01*
X98997081Y-104170920D01*
X98942810Y-104104789D01*
X98782852Y-103973517D01*
X98782853Y-103973517D01*
X98782850Y-103973515D01*
X98600354Y-103875968D01*
X98402334Y-103815900D01*
X98402332Y-103815899D01*
X98402334Y-103815899D01*
X98196400Y-103795617D01*
X97990467Y-103815899D01*
X97792443Y-103875969D01*
X97682298Y-103934843D01*
X97609950Y-103973515D01*
X97609948Y-103973516D01*
X97609947Y-103973517D01*
X97449989Y-104104789D01*
X97318717Y-104264747D01*
X97221169Y-104447243D01*
X97161099Y-104645267D01*
X97140817Y-104851200D01*
X96711983Y-104851200D01*
X96691700Y-104645266D01*
X96631632Y-104447246D01*
X96534085Y-104264750D01*
X96457081Y-104170920D01*
X96402810Y-104104789D01*
X96242852Y-103973517D01*
X96242853Y-103973517D01*
X96242850Y-103973515D01*
X96060354Y-103875968D01*
X95862334Y-103815900D01*
X95862332Y-103815899D01*
X95862334Y-103815899D01*
X95656400Y-103795617D01*
X95450467Y-103815899D01*
X95252443Y-103875969D01*
X95142298Y-103934843D01*
X95069950Y-103973515D01*
X95069948Y-103973516D01*
X95069947Y-103973517D01*
X94909989Y-104104789D01*
X94778717Y-104264747D01*
X94681169Y-104447243D01*
X94621099Y-104645267D01*
X94600817Y-104851200D01*
X88050256Y-104851200D01*
X87935497Y-104574148D01*
X87931801Y-104563992D01*
X87894991Y-104447246D01*
X87819121Y-104206614D01*
X87816322Y-104196169D01*
X87810725Y-104170921D01*
X87735212Y-103830309D01*
X87733336Y-103819663D01*
X87732841Y-103815900D01*
X87684424Y-103448135D01*
X87683484Y-103437398D01*
X87667017Y-103060249D01*
X87666900Y-103054855D01*
X87666900Y-71963492D01*
X87666901Y-71963489D01*
X87666900Y-71900301D01*
X87667018Y-71894893D01*
X87669777Y-71831695D01*
X87683480Y-71517795D01*
X87684418Y-71507065D01*
X87733333Y-71135508D01*
X87735207Y-71124884D01*
X87816317Y-70759009D01*
X87819108Y-70748595D01*
X87931802Y-70391174D01*
X87935485Y-70381053D01*
X88078896Y-70034825D01*
X88083460Y-70025039D01*
X88256495Y-69692641D01*
X88261903Y-69683273D01*
X88369159Y-69514915D01*
X88463249Y-69367222D01*
X88469439Y-69358382D01*
X88697571Y-69061075D01*
X88704509Y-69052806D01*
X88957686Y-68776512D01*
X88965312Y-68768886D01*
X89241606Y-68515709D01*
X89249875Y-68508771D01*
X89547182Y-68280639D01*
X89556022Y-68274449D01*
X89872079Y-68073099D01*
X89881441Y-68067695D01*
X90213839Y-67894660D01*
X90223625Y-67890096D01*
X90569853Y-67746685D01*
X90579974Y-67743002D01*
X90937395Y-67630308D01*
X90947809Y-67627517D01*
X91313697Y-67546404D01*
X91324308Y-67544533D01*
X91695865Y-67495618D01*
X91706595Y-67494680D01*
X92083648Y-67478219D01*
X92089055Y-67478102D01*
X92152289Y-67478103D01*
X92152293Y-67478102D01*
X147843680Y-67478102D01*
X147849091Y-67478220D01*
G37*
%TD.AperFunction*%
M02*
