%TF.GenerationSoftware,KiCad,Pcbnew,8.0.7*%
%TF.CreationDate,2025-01-17T21:34:44+01:00*%
%TF.ProjectId,SAO_HelloMyNameIs,53414f5f-4865-46c6-9c6f-4d794e616d65,rev?*%
%TF.SameCoordinates,Original*%
%TF.FileFunction,Soldermask,Bot*%
%TF.FilePolarity,Negative*%
%FSLAX46Y46*%
G04 Gerber Fmt 4.6, Leading zero omitted, Abs format (unit mm)*
G04 Created by KiCad (PCBNEW 8.0.7) date 2025-01-17 21:34:44*
%MOMM*%
%LPD*%
G01*
G04 APERTURE LIST*
G04 Aperture macros list*
%AMRoundRect*
0 Rectangle with rounded corners*
0 $1 Rounding radius*
0 $2 $3 $4 $5 $6 $7 $8 $9 X,Y pos of 4 corners*
0 Add a 4 corners polygon primitive as box body*
4,1,4,$2,$3,$4,$5,$6,$7,$8,$9,$2,$3,0*
0 Add four circle primitives for the rounded corners*
1,1,$1+$1,$2,$3*
1,1,$1+$1,$4,$5*
1,1,$1+$1,$6,$7*
1,1,$1+$1,$8,$9*
0 Add four rect primitives between the rounded corners*
20,1,$1+$1,$2,$3,$4,$5,0*
20,1,$1+$1,$4,$5,$6,$7,0*
20,1,$1+$1,$6,$7,$8,$9,0*
20,1,$1+$1,$8,$9,$2,$3,0*%
G04 Aperture macros list end*
%ADD10C,1.500000*%
%ADD11RoundRect,0.225000X-0.250000X0.225000X-0.250000X-0.225000X0.250000X-0.225000X0.250000X0.225000X0*%
%ADD12RoundRect,0.150000X0.150000X-0.800000X0.150000X0.800000X-0.150000X0.800000X-0.150000X-0.800000X0*%
%ADD13R,1.000000X3.150000*%
G04 APERTURE END LIST*
D10*
%TO.C,REF\u002A\u002A190*%
X103251000Y-99822000D03*
%TD*%
%TO.C,REF\u002A\u002A336*%
X138811000Y-82042000D03*
%TD*%
%TO.C,REF\u002A\u002A337*%
X141351000Y-82042000D03*
%TD*%
%TO.C,REF\u002A\u002A335*%
X136271000Y-82042000D03*
%TD*%
%TO.C,REF\u002A\u002A334*%
X133731000Y-82042000D03*
%TD*%
%TO.C,REF\u002A\u002A333*%
X131191000Y-82042000D03*
%TD*%
%TO.C,REF\u002A\u002A332*%
X128651000Y-82042000D03*
%TD*%
%TO.C,REF\u002A\u002A340*%
X148971000Y-82042000D03*
%TD*%
%TO.C,REF\u002A\u002A339*%
X146431000Y-82042000D03*
%TD*%
%TO.C,REF\u002A\u002A338*%
X143891000Y-82042000D03*
%TD*%
%TO.C,REF\u002A\u002A317*%
X126111000Y-82042000D03*
%TD*%
%TO.C,REF\u002A\u002A331*%
X90551000Y-82042000D03*
%TD*%
%TO.C,REF\u002A\u002A330*%
X93091000Y-82042000D03*
%TD*%
%TO.C,REF\u002A\u002A328*%
X98171000Y-82042000D03*
%TD*%
%TO.C,REF\u002A\u002A324*%
X108331000Y-82042000D03*
%TD*%
%TO.C,REF\u002A\u002A325*%
X105791000Y-82042000D03*
%TD*%
%TO.C,REF\u002A\u002A326*%
X103251000Y-82042000D03*
%TD*%
%TO.C,REF\u002A\u002A320*%
X118491000Y-82042000D03*
%TD*%
%TO.C,REF\u002A\u002A318*%
X123571000Y-82042000D03*
%TD*%
%TO.C,REF\u002A\u002A329*%
X95631000Y-82042000D03*
%TD*%
%TO.C,REF\u002A\u002A321*%
X115951000Y-82042000D03*
%TD*%
%TO.C,REF\u002A\u002A323*%
X110871000Y-82042000D03*
%TD*%
%TO.C,REF\u002A\u002A319*%
X121031000Y-82042000D03*
%TD*%
%TO.C,REF\u002A\u002A322*%
X113411000Y-82042000D03*
%TD*%
%TO.C,REF\u002A\u002A327*%
X100711000Y-82042000D03*
%TD*%
%TO.C,REF\u002A\u002A312*%
X138811000Y-79502000D03*
%TD*%
%TO.C,REF\u002A\u002A313*%
X141351000Y-79502000D03*
%TD*%
%TO.C,REF\u002A\u002A311*%
X136271000Y-79502000D03*
%TD*%
%TO.C,REF\u002A\u002A310*%
X133731000Y-79502000D03*
%TD*%
%TO.C,REF\u002A\u002A309*%
X131191000Y-79502000D03*
%TD*%
%TO.C,REF\u002A\u002A308*%
X128651000Y-79502000D03*
%TD*%
%TO.C,REF\u002A\u002A316*%
X148971000Y-79502000D03*
%TD*%
%TO.C,REF\u002A\u002A315*%
X146431000Y-79502000D03*
%TD*%
%TO.C,REF\u002A\u002A314*%
X143891000Y-79502000D03*
%TD*%
%TO.C,REF\u002A\u002A293*%
X126111000Y-79502000D03*
%TD*%
%TO.C,REF\u002A\u002A307*%
X90551000Y-79502000D03*
%TD*%
%TO.C,REF\u002A\u002A306*%
X93091000Y-79502000D03*
%TD*%
%TO.C,REF\u002A\u002A304*%
X98171000Y-79502000D03*
%TD*%
%TO.C,REF\u002A\u002A300*%
X108331000Y-79502000D03*
%TD*%
%TO.C,REF\u002A\u002A301*%
X105791000Y-79502000D03*
%TD*%
%TO.C,REF\u002A\u002A302*%
X103251000Y-79502000D03*
%TD*%
%TO.C,REF\u002A\u002A296*%
X118491000Y-79502000D03*
%TD*%
%TO.C,REF\u002A\u002A294*%
X123571000Y-79502000D03*
%TD*%
%TO.C,REF\u002A\u002A305*%
X95631000Y-79502000D03*
%TD*%
%TO.C,REF\u002A\u002A297*%
X115951000Y-79502000D03*
%TD*%
%TO.C,REF\u002A\u002A299*%
X110871000Y-79502000D03*
%TD*%
%TO.C,REF\u002A\u002A295*%
X121031000Y-79502000D03*
%TD*%
%TO.C,REF\u002A\u002A298*%
X113411000Y-79502000D03*
%TD*%
%TO.C,REF\u002A\u002A303*%
X100711000Y-79502000D03*
%TD*%
%TO.C,REF\u002A\u002A288*%
X138811000Y-76962000D03*
%TD*%
%TO.C,REF\u002A\u002A289*%
X141351000Y-76962000D03*
%TD*%
%TO.C,REF\u002A\u002A287*%
X136271000Y-76962000D03*
%TD*%
%TO.C,REF\u002A\u002A286*%
X133731000Y-76962000D03*
%TD*%
%TO.C,REF\u002A\u002A285*%
X131191000Y-76962000D03*
%TD*%
%TO.C,REF\u002A\u002A284*%
X128651000Y-76962000D03*
%TD*%
%TO.C,REF\u002A\u002A292*%
X148971000Y-76962000D03*
%TD*%
%TO.C,REF\u002A\u002A291*%
X146431000Y-76962000D03*
%TD*%
%TO.C,REF\u002A\u002A290*%
X143891000Y-76962000D03*
%TD*%
%TO.C,REF\u002A\u002A269*%
X126111000Y-76962000D03*
%TD*%
%TO.C,REF\u002A\u002A283*%
X90551000Y-76962000D03*
%TD*%
%TO.C,REF\u002A\u002A282*%
X93091000Y-76962000D03*
%TD*%
%TO.C,REF\u002A\u002A280*%
X98171000Y-76962000D03*
%TD*%
%TO.C,REF\u002A\u002A276*%
X108331000Y-76962000D03*
%TD*%
%TO.C,REF\u002A\u002A277*%
X105791000Y-76962000D03*
%TD*%
%TO.C,REF\u002A\u002A278*%
X103251000Y-76962000D03*
%TD*%
%TO.C,REF\u002A\u002A272*%
X118491000Y-76962000D03*
%TD*%
%TO.C,REF\u002A\u002A270*%
X123571000Y-76962000D03*
%TD*%
%TO.C,REF\u002A\u002A281*%
X95631000Y-76962000D03*
%TD*%
%TO.C,REF\u002A\u002A273*%
X115951000Y-76962000D03*
%TD*%
%TO.C,REF\u002A\u002A275*%
X110871000Y-76962000D03*
%TD*%
%TO.C,REF\u002A\u002A271*%
X121031000Y-76962000D03*
%TD*%
%TO.C,REF\u002A\u002A274*%
X113411000Y-76962000D03*
%TD*%
%TO.C,REF\u002A\u002A279*%
X100711000Y-76962000D03*
%TD*%
%TO.C,REF\u002A\u002A264*%
X138811000Y-74422000D03*
%TD*%
%TO.C,REF\u002A\u002A265*%
X141351000Y-74422000D03*
%TD*%
%TO.C,REF\u002A\u002A263*%
X136271000Y-74422000D03*
%TD*%
%TO.C,REF\u002A\u002A262*%
X133731000Y-74422000D03*
%TD*%
%TO.C,REF\u002A\u002A261*%
X131191000Y-74422000D03*
%TD*%
%TO.C,REF\u002A\u002A260*%
X128651000Y-74422000D03*
%TD*%
%TO.C,REF\u002A\u002A268*%
X148971000Y-74422000D03*
%TD*%
%TO.C,REF\u002A\u002A267*%
X146431000Y-74422000D03*
%TD*%
%TO.C,REF\u002A\u002A266*%
X143891000Y-74422000D03*
%TD*%
%TO.C,REF\u002A\u002A203*%
X126111000Y-74422000D03*
%TD*%
%TO.C,REF\u002A\u002A259*%
X90551000Y-74422000D03*
%TD*%
%TO.C,REF\u002A\u002A258*%
X93091000Y-74422000D03*
%TD*%
%TO.C,REF\u002A\u002A238*%
X98171000Y-74422000D03*
%TD*%
%TO.C,REF\u002A\u002A234*%
X108331000Y-74422000D03*
%TD*%
%TO.C,REF\u002A\u002A235*%
X105791000Y-74422000D03*
%TD*%
%TO.C,REF\u002A\u002A236*%
X103251000Y-74422000D03*
%TD*%
%TO.C,REF\u002A\u002A206*%
X118491000Y-74422000D03*
%TD*%
%TO.C,REF\u002A\u002A204*%
X123571000Y-74422000D03*
%TD*%
%TO.C,REF\u002A\u002A239*%
X95631000Y-74422000D03*
%TD*%
%TO.C,REF\u002A\u002A207*%
X115951000Y-74422000D03*
%TD*%
%TO.C,REF\u002A\u002A209*%
X110871000Y-74422000D03*
%TD*%
%TO.C,REF\u002A\u002A205*%
X121031000Y-74422000D03*
%TD*%
%TO.C,REF\u002A\u002A208*%
X113411000Y-74422000D03*
%TD*%
%TO.C,REF\u002A\u002A237*%
X100711000Y-74422000D03*
%TD*%
%TO.C,REF\u002A\u002A179*%
X138811000Y-71882000D03*
%TD*%
%TO.C,REF\u002A\u002A199*%
X141351000Y-71882000D03*
%TD*%
%TO.C,REF\u002A\u002A178*%
X136271000Y-71882000D03*
%TD*%
%TO.C,REF\u002A\u002A177*%
X133731000Y-71882000D03*
%TD*%
%TO.C,REF\u002A\u002A176*%
X131191000Y-71882000D03*
%TD*%
%TO.C,REF\u002A\u002A175*%
X128651000Y-71882000D03*
%TD*%
%TO.C,REF\u002A\u002A202*%
X148971000Y-71882000D03*
%TD*%
%TO.C,REF\u002A\u002A201*%
X146431000Y-71882000D03*
%TD*%
%TO.C,REF\u002A\u002A200*%
X143891000Y-71882000D03*
%TD*%
%TO.C,REF\u002A\u002A144*%
X126111000Y-71882000D03*
%TD*%
%TO.C,REF\u002A\u002A174*%
X90551000Y-71882000D03*
%TD*%
%TO.C,REF\u002A\u002A173*%
X93091000Y-71882000D03*
%TD*%
%TO.C,REF\u002A\u002A171*%
X98171000Y-71882000D03*
%TD*%
%TO.C,REF\u002A\u002A167*%
X108331000Y-71882000D03*
%TD*%
%TO.C,REF\u002A\u002A168*%
X105791000Y-71882000D03*
%TD*%
%TO.C,REF\u002A\u002A169*%
X103251000Y-71882000D03*
%TD*%
%TO.C,REF\u002A\u002A147*%
X118491000Y-71882000D03*
%TD*%
%TO.C,REF\u002A\u002A145*%
X123571000Y-71882000D03*
%TD*%
%TO.C,REF\u002A\u002A172*%
X95631000Y-71882000D03*
%TD*%
%TO.C,REF\u002A\u002A148*%
X115951000Y-71882000D03*
%TD*%
%TO.C,REF\u002A\u002A166*%
X110871000Y-71882000D03*
%TD*%
%TO.C,REF\u002A\u002A146*%
X121031000Y-71882000D03*
%TD*%
%TO.C,REF\u002A\u002A149*%
X113411000Y-71882000D03*
%TD*%
%TO.C,REF\u002A\u002A170*%
X100711000Y-71882000D03*
%TD*%
%TO.C,REF\u002A\u002A139*%
X138811000Y-69342000D03*
%TD*%
%TO.C,REF\u002A\u002A140*%
X141351000Y-69342000D03*
%TD*%
%TO.C,REF\u002A\u002A138*%
X136271000Y-69342000D03*
%TD*%
%TO.C,REF\u002A\u002A137*%
X133731000Y-69342000D03*
%TD*%
%TO.C,REF\u002A\u002A136*%
X131191000Y-69342000D03*
%TD*%
%TO.C,REF\u002A\u002A119*%
X128651000Y-69342000D03*
%TD*%
%TO.C,REF\u002A\u002A142*%
X146431000Y-69342000D03*
%TD*%
%TO.C,REF\u002A\u002A141*%
X143891000Y-69342000D03*
%TD*%
%TO.C,REF\u002A\u002A88*%
X126111000Y-69342000D03*
%TD*%
%TO.C,REF\u002A\u002A117*%
X93091000Y-69342000D03*
%TD*%
%TO.C,REF\u002A\u002A115*%
X98171000Y-69342000D03*
%TD*%
%TO.C,REF\u002A\u002A111*%
X108331000Y-69342000D03*
%TD*%
%TO.C,REF\u002A\u002A112*%
X105791000Y-69342000D03*
%TD*%
%TO.C,REF\u002A\u002A113*%
X103251000Y-69342000D03*
%TD*%
%TO.C,REF\u002A\u002A107*%
X118491000Y-69342000D03*
%TD*%
%TO.C,REF\u002A\u002A89*%
X123571000Y-69342000D03*
%TD*%
%TO.C,REF\u002A\u002A116*%
X95631000Y-69342000D03*
%TD*%
%TO.C,REF\u002A\u002A108*%
X115951000Y-69342000D03*
%TD*%
%TO.C,REF\u002A\u002A110*%
X110871000Y-69342000D03*
%TD*%
%TO.C,REF\u002A\u002A106*%
X121031000Y-69342000D03*
%TD*%
%TO.C,REF\u002A\u002A109*%
X113411000Y-69342000D03*
%TD*%
%TO.C,REF\u002A\u002A114*%
X100711000Y-69342000D03*
%TD*%
%TO.C,REF\u002A\u002A233*%
X148971000Y-102362000D03*
%TD*%
%TO.C,REF\u002A\u002A198*%
X148971000Y-99822000D03*
%TD*%
%TO.C,REF\u002A\u002A165*%
X148971000Y-97282000D03*
%TD*%
%TO.C,REF\u002A\u002A23*%
X148971000Y-84582000D03*
%TD*%
%TO.C,REF\u002A\u002A135*%
X148971000Y-94742000D03*
%TD*%
%TO.C,REF\u002A\u002A105*%
X148971000Y-92202000D03*
%TD*%
%TO.C,REF\u002A\u002A75*%
X148971000Y-89662000D03*
%TD*%
%TO.C,REF\u002A\u002A53*%
X148971000Y-87122000D03*
%TD*%
%TO.C,REF\u002A\u002A232*%
X146431000Y-102362000D03*
%TD*%
%TO.C,REF\u002A\u002A197*%
X146431000Y-99822000D03*
%TD*%
%TO.C,REF\u002A\u002A162*%
X146431000Y-97282000D03*
%TD*%
%TO.C,REF\u002A\u002A256*%
X146431000Y-104902000D03*
%TD*%
%TO.C,REF\u002A\u002A22*%
X146431000Y-84582000D03*
%TD*%
%TO.C,REF\u002A\u002A132*%
X146431000Y-94742000D03*
%TD*%
%TO.C,REF\u002A\u002A102*%
X146431000Y-92202000D03*
%TD*%
%TO.C,REF\u002A\u002A72*%
X146431000Y-89662000D03*
%TD*%
%TO.C,REF\u002A\u002A52*%
X146431000Y-87122000D03*
%TD*%
%TO.C,REF\u002A\u002A231*%
X143891000Y-102362000D03*
%TD*%
%TO.C,REF\u002A\u002A196*%
X143891000Y-99822000D03*
%TD*%
%TO.C,REF\u002A\u002A161*%
X143891000Y-97282000D03*
%TD*%
%TO.C,REF\u002A\u002A255*%
X143891000Y-104902000D03*
%TD*%
%TO.C,REF\u002A\u002A21*%
X143891000Y-84582000D03*
%TD*%
%TO.C,REF\u002A\u002A131*%
X143891000Y-94742000D03*
%TD*%
%TO.C,REF\u002A\u002A101*%
X143891000Y-92202000D03*
%TD*%
%TO.C,REF\u002A\u002A71*%
X143891000Y-89662000D03*
%TD*%
%TO.C,REF\u002A\u002A51*%
X143891000Y-87122000D03*
%TD*%
%TO.C,REF\u002A\u002A230*%
X141351000Y-102362000D03*
%TD*%
%TO.C,REF\u002A\u002A195*%
X141351000Y-99822000D03*
%TD*%
%TO.C,REF\u002A\u002A160*%
X141351000Y-97282000D03*
%TD*%
%TO.C,REF\u002A\u002A252*%
X141351000Y-104902000D03*
%TD*%
%TO.C,REF\u002A\u002A20*%
X141351000Y-84582000D03*
%TD*%
%TO.C,REF\u002A\u002A130*%
X141351000Y-94742000D03*
%TD*%
%TO.C,REF\u002A\u002A100*%
X141351000Y-92202000D03*
%TD*%
%TO.C,REF\u002A\u002A70*%
X141351000Y-89662000D03*
%TD*%
%TO.C,REF\u002A\u002A50*%
X141351000Y-87122000D03*
%TD*%
%TO.C,REF\u002A\u002A229*%
X138811000Y-102362000D03*
%TD*%
%TO.C,REF\u002A\u002A189*%
X138811000Y-99822000D03*
%TD*%
%TO.C,REF\u002A\u002A159*%
X138811000Y-97282000D03*
%TD*%
%TO.C,REF\u002A\u002A251*%
X138811000Y-104902000D03*
%TD*%
%TO.C,REF\u002A\u002A19*%
X138811000Y-84582000D03*
%TD*%
%TO.C,REF\u002A\u002A129*%
X138811000Y-94742000D03*
%TD*%
%TO.C,REF\u002A\u002A99*%
X138811000Y-92202000D03*
%TD*%
%TO.C,REF\u002A\u002A69*%
X138811000Y-89662000D03*
%TD*%
%TO.C,REF\u002A\u002A49*%
X138811000Y-87122000D03*
%TD*%
%TO.C,REF\u002A\u002A228*%
X136271000Y-102362000D03*
%TD*%
%TO.C,REF\u002A\u002A188*%
X136271000Y-99822000D03*
%TD*%
%TO.C,REF\u002A\u002A158*%
X136271000Y-97282000D03*
%TD*%
%TO.C,REF\u002A\u002A250*%
X136271000Y-104902000D03*
%TD*%
%TO.C,REF\u002A\u002A18*%
X136271000Y-84582000D03*
%TD*%
%TO.C,REF\u002A\u002A128*%
X136271000Y-94742000D03*
%TD*%
%TO.C,REF\u002A\u002A98*%
X136271000Y-92202000D03*
%TD*%
%TO.C,REF\u002A\u002A68*%
X136271000Y-89662000D03*
%TD*%
%TO.C,REF\u002A\u002A48*%
X136271000Y-87122000D03*
%TD*%
%TO.C,REF\u002A\u002A227*%
X133731000Y-102362000D03*
%TD*%
%TO.C,REF\u002A\u002A187*%
X133731000Y-99822000D03*
%TD*%
%TO.C,REF\u002A\u002A157*%
X133731000Y-97282000D03*
%TD*%
%TO.C,REF\u002A\u002A249*%
X133731000Y-104902000D03*
%TD*%
%TO.C,REF\u002A\u002A17*%
X133731000Y-84582000D03*
%TD*%
%TO.C,REF\u002A\u002A127*%
X133731000Y-94742000D03*
%TD*%
%TO.C,REF\u002A\u002A97*%
X133731000Y-92202000D03*
%TD*%
%TO.C,REF\u002A\u002A67*%
X133731000Y-89662000D03*
%TD*%
%TO.C,REF\u002A\u002A47*%
X133731000Y-87122000D03*
%TD*%
%TO.C,REF\u002A\u002A226*%
X131191000Y-102362000D03*
%TD*%
%TO.C,REF\u002A\u002A186*%
X131191000Y-99822000D03*
%TD*%
%TO.C,REF\u002A\u002A156*%
X131191000Y-97282000D03*
%TD*%
%TO.C,REF\u002A\u002A248*%
X131191000Y-104902000D03*
%TD*%
%TO.C,REF\u002A\u002A16*%
X131191000Y-84582000D03*
%TD*%
%TO.C,REF\u002A\u002A126*%
X131191000Y-94742000D03*
%TD*%
%TO.C,REF\u002A\u002A96*%
X131191000Y-92202000D03*
%TD*%
%TO.C,REF\u002A\u002A66*%
X131191000Y-89662000D03*
%TD*%
%TO.C,REF\u002A\u002A46*%
X131191000Y-87122000D03*
%TD*%
%TO.C,REF\u002A\u002A225*%
X128651000Y-102362000D03*
%TD*%
%TO.C,REF\u002A\u002A185*%
X128651000Y-99822000D03*
%TD*%
%TO.C,REF\u002A\u002A155*%
X128651000Y-97282000D03*
%TD*%
%TO.C,REF\u002A\u002A247*%
X128651000Y-104902000D03*
%TD*%
%TO.C,REF\u002A\u002A15*%
X128651000Y-84582000D03*
%TD*%
%TO.C,REF\u002A\u002A125*%
X128651000Y-94742000D03*
%TD*%
%TO.C,REF\u002A\u002A95*%
X128651000Y-92202000D03*
%TD*%
%TO.C,REF\u002A\u002A65*%
X128651000Y-89662000D03*
%TD*%
%TO.C,REF\u002A\u002A45*%
X128651000Y-87122000D03*
%TD*%
%TO.C,*%
X98196400Y-104851200D03*
%TD*%
%TO.C,*%
X95656400Y-104851200D03*
%TD*%
%TO.C,*%
X108356400Y-104851200D03*
%TD*%
%TO.C,*%
X105816400Y-104851200D03*
%TD*%
%TO.C,*%
X103276400Y-104851200D03*
%TD*%
%TO.C,*%
X100736400Y-104851200D03*
%TD*%
D11*
%TO.C,REF\u002A\u002A*%
X95148400Y-96990200D03*
X95148400Y-95440200D03*
%TD*%
%TO.C,REF\u002A\u002A*%
X95148400Y-92164200D03*
X95148400Y-90614200D03*
%TD*%
%TO.C,REF\u002A\u002A*%
X103403400Y-91402200D03*
X103403400Y-89852200D03*
%TD*%
%TO.C,REF\u002A\u002A*%
X104927400Y-91402200D03*
X104927400Y-89852200D03*
%TD*%
D12*
%TO.C,IC*%
X101219000Y-96972000D03*
X99949000Y-96972000D03*
X98679000Y-96972000D03*
X97409000Y-96972000D03*
X97409000Y-89972000D03*
X98679000Y-89972000D03*
X99949000Y-89972000D03*
X101219000Y-89972000D03*
%TD*%
D10*
%TO.C,REF\u002A\u002A253*%
X93091000Y-104902000D03*
%TD*%
%TO.C,REF\u002A\u002A246*%
X110871000Y-104902000D03*
%TD*%
%TO.C,REF\u002A\u002A245*%
X113411000Y-104902000D03*
%TD*%
%TO.C,REF\u002A\u002A244*%
X115951000Y-104902000D03*
%TD*%
%TO.C,REF\u002A\u002A243*%
X118491000Y-104902000D03*
%TD*%
%TO.C,REF\u002A\u002A242*%
X121031000Y-104902000D03*
%TD*%
%TO.C,REF\u002A\u002A241*%
X123571000Y-104902000D03*
%TD*%
%TO.C,REF\u002A\u002A240*%
X126111000Y-104902000D03*
%TD*%
%TO.C,REF\u002A\u002A224*%
X90551000Y-102362000D03*
%TD*%
%TO.C,REF\u002A\u002A223*%
X93091000Y-102362000D03*
%TD*%
%TO.C,REF\u002A\u002A222*%
X95631000Y-102362000D03*
%TD*%
%TO.C,REF\u002A\u002A221*%
X98171000Y-102362000D03*
%TD*%
%TO.C,REF\u002A\u002A220*%
X100711000Y-102362000D03*
%TD*%
%TO.C,REF\u002A\u002A219*%
X103251000Y-102362000D03*
%TD*%
%TO.C,REF\u002A\u002A218*%
X105791000Y-102362000D03*
%TD*%
%TO.C,REF\u002A\u002A217*%
X108331000Y-102362000D03*
%TD*%
%TO.C,REF\u002A\u002A216*%
X110871000Y-102362000D03*
%TD*%
%TO.C,REF\u002A\u002A215*%
X113411000Y-102362000D03*
%TD*%
%TO.C,REF\u002A\u002A214*%
X115951000Y-102362000D03*
%TD*%
%TO.C,REF\u002A\u002A213*%
X118491000Y-102362000D03*
%TD*%
%TO.C,REF\u002A\u002A212*%
X121031000Y-102362000D03*
%TD*%
%TO.C,REF\u002A\u002A211*%
X123571000Y-102362000D03*
%TD*%
%TO.C,REF\u002A\u002A210*%
X126111000Y-102362000D03*
%TD*%
%TO.C,REF\u002A\u002A194*%
X90551000Y-99822000D03*
%TD*%
%TO.C,REF\u002A\u002A193*%
X93091000Y-99822000D03*
%TD*%
%TO.C,REF\u002A\u002A192*%
X95631000Y-99822000D03*
%TD*%
%TO.C,REF\u002A\u002A191*%
X98171000Y-99822000D03*
%TD*%
%TO.C,REF\u002A\u002A190*%
X100711000Y-99822000D03*
%TD*%
%TO.C,REF\u002A\u002A184*%
X115951000Y-99822000D03*
%TD*%
%TO.C,REF\u002A\u002A183*%
X118491000Y-99822000D03*
%TD*%
%TO.C,REF\u002A\u002A182*%
X121031000Y-99822000D03*
%TD*%
%TO.C,REF\u002A\u002A181*%
X123571000Y-99822000D03*
%TD*%
%TO.C,REF\u002A\u002A180*%
X126111000Y-99822000D03*
%TD*%
%TO.C,REF\u002A\u002A164*%
X90551000Y-97282000D03*
%TD*%
%TO.C,REF\u002A\u002A154*%
X115951000Y-97282000D03*
%TD*%
%TO.C,REF\u002A\u002A153*%
X118491000Y-97282000D03*
%TD*%
%TO.C,REF\u002A\u002A152*%
X121031000Y-97282000D03*
%TD*%
%TO.C,REF\u002A\u002A151*%
X123571000Y-97282000D03*
%TD*%
%TO.C,REF\u002A\u002A150*%
X126111000Y-97282000D03*
%TD*%
%TO.C,REF\u002A\u002A134*%
X90551000Y-94742000D03*
%TD*%
%TO.C,REF\u002A\u002A124*%
X115951000Y-94742000D03*
%TD*%
%TO.C,REF\u002A\u002A123*%
X118491000Y-94742000D03*
%TD*%
%TO.C,REF\u002A\u002A122*%
X121031000Y-94742000D03*
%TD*%
%TO.C,REF\u002A\u002A121*%
X123571000Y-94742000D03*
%TD*%
%TO.C,REF\u002A\u002A120*%
X126111000Y-94742000D03*
%TD*%
%TO.C,REF\u002A\u002A104*%
X90551000Y-92202000D03*
%TD*%
%TO.C,REF\u002A\u002A94*%
X115951000Y-92202000D03*
%TD*%
%TO.C,REF\u002A\u002A93*%
X118491000Y-92202000D03*
%TD*%
%TO.C,REF\u002A\u002A92*%
X121031000Y-92202000D03*
%TD*%
%TO.C,REF\u002A\u002A91*%
X123571000Y-92202000D03*
%TD*%
%TO.C,REF\u002A\u002A90*%
X126111000Y-92202000D03*
%TD*%
%TO.C,REF\u002A\u002A74*%
X90551000Y-89662000D03*
%TD*%
%TO.C,REF\u002A\u002A64*%
X115951000Y-89662000D03*
%TD*%
%TO.C,REF\u002A\u002A63*%
X118491000Y-89662000D03*
%TD*%
%TO.C,REF\u002A\u002A62*%
X121031000Y-89662000D03*
%TD*%
%TO.C,REF\u002A\u002A61*%
X123571000Y-89662000D03*
%TD*%
%TO.C,REF\u002A\u002A60*%
X126111000Y-89662000D03*
%TD*%
%TO.C,REF\u002A\u002A44*%
X90551000Y-87122000D03*
%TD*%
%TO.C,REF\u002A\u002A43*%
X93091000Y-87122000D03*
%TD*%
%TO.C,REF\u002A\u002A42*%
X95631000Y-87122000D03*
%TD*%
%TO.C,REF\u002A\u002A41*%
X98171000Y-87122000D03*
%TD*%
%TO.C,REF\u002A\u002A40*%
X100711000Y-87122000D03*
%TD*%
%TO.C,REF\u002A\u002A39*%
X103251000Y-87122000D03*
%TD*%
%TO.C,REF\u002A\u002A38*%
X105791000Y-87122000D03*
%TD*%
%TO.C,REF\u002A\u002A37*%
X108331000Y-87122000D03*
%TD*%
%TO.C,REF\u002A\u002A36*%
X110871000Y-87122000D03*
%TD*%
%TO.C,REF\u002A\u002A35*%
X113411000Y-87122000D03*
%TD*%
%TO.C,REF\u002A\u002A34*%
X115951000Y-87122000D03*
%TD*%
%TO.C,REF\u002A\u002A33*%
X118491000Y-87122000D03*
%TD*%
%TO.C,REF\u002A\u002A32*%
X121031000Y-87122000D03*
%TD*%
%TO.C,REF\u002A\u002A31*%
X123571000Y-87122000D03*
%TD*%
%TO.C,REF\u002A\u002A30*%
X126111000Y-87122000D03*
%TD*%
%TO.C,REF\u002A\u002A14*%
X90551000Y-84582000D03*
%TD*%
%TO.C,REF\u002A\u002A13*%
X93091000Y-84582000D03*
%TD*%
%TO.C,REF\u002A\u002A12*%
X95631000Y-84582000D03*
%TD*%
%TO.C,REF\u002A\u002A11*%
X98171000Y-84582000D03*
%TD*%
%TO.C,REF\u002A\u002A10*%
X100711000Y-84582000D03*
%TD*%
%TO.C,REF\u002A\u002A9*%
X103251000Y-84582000D03*
%TD*%
%TO.C,REF\u002A\u002A8*%
X105791000Y-84582000D03*
%TD*%
%TO.C,REF\u002A\u002A7*%
X108331000Y-84582000D03*
%TD*%
%TO.C,REF\u002A\u002A6*%
X110871000Y-84582000D03*
%TD*%
%TO.C,REF\u002A\u002A5*%
X113411000Y-84582000D03*
%TD*%
%TO.C,REF\u002A\u002A4*%
X115951000Y-84582000D03*
%TD*%
%TO.C,REF\u002A\u002A3*%
X118491000Y-84582000D03*
%TD*%
%TO.C,REF\u002A\u002A2*%
X121031000Y-84582000D03*
%TD*%
%TO.C,REF\u002A\u002A1*%
X123571000Y-84582000D03*
%TD*%
%TO.C,REF\u002A\u002A*%
X126111000Y-84582000D03*
%TD*%
D13*
%TO.C,SAO*%
X107594400Y-92435200D03*
X107594400Y-97485200D03*
X110134400Y-92435200D03*
X110134400Y-97485200D03*
X112674400Y-92435200D03*
X112674400Y-97485200D03*
%TD*%
D10*
%TO.C,REF\u002A\u002A133*%
X93091000Y-94742000D03*
%TD*%
%TO.C,REF\u002A\u002A103*%
X93091000Y-92202000D03*
%TD*%
%TO.C,REF\u002A\u002A73*%
X93091000Y-89662000D03*
%TD*%
%TO.C,REF\u002A\u002A163*%
X93091000Y-97282000D03*
%TD*%
M02*
